<svg width="183" height="44" viewBox="0 0 183 44" fill="none" xmlns="http://www.w3.org/2000/svg">
<path d="M61.4219 27.6562C61.4219 29.0104 61.0938 30.1875 60.4375 31.1875C59.7812 32.1875 58.8229 32.9583 57.5625 33.5C56.3125 34.0417 54.7917 34.3125 53 34.3125C52.2083 34.3125 51.4323 34.2604 50.6719 34.1562C49.9219 34.0521 49.1979 33.901 48.5 33.7031C47.8125 33.4948 47.1562 33.2396 46.5312 32.9375V28.4375C47.6146 28.9167 48.7396 29.349 49.9062 29.7344C51.0729 30.1198 52.2292 30.3125 53.375 30.3125C54.1667 30.3125 54.8021 30.2083 55.2812 30C55.7708 29.7917 56.125 29.5052 56.3438 29.1406C56.5625 28.776 56.6719 28.3594 56.6719 27.8906C56.6719 27.3177 56.4792 26.8281 56.0938 26.4219C55.7083 26.0156 55.1771 25.6354 54.5 25.2812C53.8333 24.9271 53.0781 24.5469 52.2344 24.1406C51.7031 23.8906 51.125 23.5885 50.5 23.2344C49.875 22.8698 49.2812 22.4271 48.7188 21.9062C48.1562 21.3854 47.6927 20.7552 47.3281 20.0156C46.974 19.2656 46.7969 18.3698 46.7969 17.3281C46.7969 15.9635 47.1094 14.7969 47.7344 13.8281C48.3594 12.8594 49.25 12.1198 50.4062 11.6094C51.5729 11.0885 52.9479 10.8281 54.5312 10.8281C55.7188 10.8281 56.849 10.9688 57.9219 11.25C59.0052 11.5208 60.1354 11.9167 61.3125 12.4375L59.75 16.2031C58.6979 15.776 57.7552 15.4479 56.9219 15.2188C56.0885 14.9792 55.2396 14.8594 54.375 14.8594C53.7708 14.8594 53.2552 14.9583 52.8281 15.1562C52.401 15.3438 52.0781 15.6146 51.8594 15.9688C51.6406 16.3125 51.5312 16.7135 51.5312 17.1719C51.5312 17.7135 51.6875 18.1719 52 18.5469C52.3229 18.9115 52.8021 19.2656 53.4375 19.6094C54.0833 19.9531 54.8854 20.3542 55.8438 20.8125C57.0104 21.3646 58.0052 21.9427 58.8281 22.5469C59.6615 23.1406 60.3021 23.8438 60.75 24.6562C61.1979 25.4583 61.4219 26.4583 61.4219 27.6562ZM72.8594 11.1562C75.8073 11.1562 77.9583 11.7917 79.3125 13.0625C80.6667 14.3229 81.3438 16.0625 81.3438 18.2812C81.3438 19.2812 81.1927 20.2396 80.8906 21.1562C80.5885 22.0625 80.0938 22.8698 79.4062 23.5781C78.7292 24.2865 77.8229 24.849 76.6875 25.2656C75.5521 25.6719 74.151 25.875 72.4844 25.875H70.4062V34H65.5625V11.1562H72.8594ZM72.6094 15.125H70.4062V21.9062H72C72.9062 21.9062 73.6927 21.7865 74.3594 21.5469C75.026 21.3073 75.5417 20.9323 75.9062 20.4219C76.2708 19.9115 76.4531 19.2552 76.4531 18.4531C76.4531 17.3281 76.1406 16.4948 75.5156 15.9531C74.8906 15.401 73.9219 15.125 72.6094 15.125ZM104.375 34H99.5469V24.1406H90.5V34H85.6562V11.1562H90.5V20.1094H99.5469V11.1562H104.375V34ZM125.656 25.2344C125.656 26.6927 125.458 27.9844 125.062 29.1094C124.677 30.2344 124.109 31.1875 123.359 31.9688C122.62 32.7396 121.724 33.3229 120.672 33.7188C119.63 34.1146 118.453 34.3125 117.141 34.3125C115.911 34.3125 114.781 34.1146 113.75 33.7188C112.729 33.3229 111.839 32.7396 111.078 31.9688C110.328 31.1875 109.745 30.2344 109.328 29.1094C108.922 27.9844 108.719 26.6927 108.719 25.2344C108.719 23.2969 109.062 21.6562 109.75 20.3125C110.438 18.9688 111.417 17.9479 112.688 17.25C113.958 16.5521 115.474 16.2031 117.234 16.2031C118.87 16.2031 120.318 16.5521 121.578 17.25C122.849 17.9479 123.844 18.9688 124.562 20.3125C125.292 21.6562 125.656 23.2969 125.656 25.2344ZM113.578 25.2344C113.578 26.3802 113.703 27.3438 113.953 28.125C114.203 28.9062 114.594 29.4948 115.125 29.8906C115.656 30.2865 116.349 30.4844 117.203 30.4844C118.047 30.4844 118.729 30.2865 119.25 29.8906C119.781 29.4948 120.167 28.9062 120.406 28.125C120.656 27.3438 120.781 26.3802 120.781 25.2344C120.781 24.0781 120.656 23.1198 120.406 22.3594C120.167 21.5885 119.781 21.0104 119.25 20.625C118.719 20.2396 118.026 20.0469 117.172 20.0469C115.911 20.0469 114.995 20.4792 114.422 21.3438C113.859 22.2083 113.578 23.5052 113.578 25.2344ZM145.625 16.5312V34H141.969L141.328 31.7656H141.078C140.703 32.3594 140.234 32.8438 139.672 33.2188C139.109 33.5938 138.49 33.8698 137.812 34.0469C137.135 34.224 136.432 34.3125 135.703 34.3125C134.453 34.3125 133.365 34.0938 132.438 33.6562C131.51 33.2083 130.786 32.5156 130.266 31.5781C129.755 30.6406 129.5 29.4219 129.5 27.9219V16.5312H134.266V26.7344C134.266 27.9844 134.49 28.9271 134.938 29.5625C135.385 30.1979 136.099 30.5156 137.078 30.5156C138.047 30.5156 138.807 30.2969 139.359 29.8594C139.911 29.4115 140.297 28.7604 140.516 27.9062C140.745 27.0417 140.859 25.9896 140.859 24.75V16.5312H145.625ZM162.812 28.8125C162.812 30 162.531 31.0052 161.969 31.8281C161.417 32.6406 160.589 33.2604 159.484 33.6875C158.38 34.1042 157.005 34.3125 155.359 34.3125C154.141 34.3125 153.094 34.2344 152.219 34.0781C151.354 33.9219 150.479 33.6615 149.594 33.2969V29.3594C150.542 29.7865 151.557 30.1406 152.641 30.4219C153.734 30.6927 154.693 30.8281 155.516 30.8281C156.443 30.8281 157.104 30.6927 157.5 30.4219C157.906 30.1406 158.109 29.776 158.109 29.3281C158.109 29.0365 158.026 28.776 157.859 28.5469C157.703 28.3073 157.359 28.0417 156.828 27.75C156.297 27.4479 155.464 27.0573 154.328 26.5781C153.234 26.1198 152.333 25.6562 151.625 25.1875C150.927 24.7188 150.406 24.1667 150.062 23.5312C149.729 22.8854 149.562 22.0677 149.562 21.0781C149.562 19.4635 150.188 18.25 151.438 17.4375C152.698 16.6146 154.38 16.2031 156.484 16.2031C157.568 16.2031 158.599 16.3125 159.578 16.5312C160.568 16.75 161.583 17.099 162.625 17.5781L161.188 21.0156C160.323 20.6406 159.505 20.3333 158.734 20.0938C157.974 19.8542 157.198 19.7344 156.406 19.7344C155.708 19.7344 155.182 19.8281 154.828 20.0156C154.474 20.2031 154.297 20.4896 154.297 20.875C154.297 21.1562 154.385 21.4062 154.562 21.625C154.75 21.8438 155.104 22.0885 155.625 22.3594C156.156 22.6198 156.932 22.9583 157.953 23.375C158.943 23.7812 159.802 24.2083 160.531 24.6562C161.26 25.0938 161.823 25.6406 162.219 26.2969C162.615 26.9427 162.812 27.7812 162.812 28.8125ZM173.734 16.2031C175.349 16.2031 176.74 16.5156 177.906 17.1406C179.073 17.7552 179.974 18.651 180.609 19.8281C181.245 21.0052 181.562 22.4427 181.562 24.1406V26.4531H170.297C170.349 27.7969 170.75 28.8542 171.5 29.625C172.26 30.3854 173.312 30.7656 174.656 30.7656C175.771 30.7656 176.792 30.651 177.719 30.4219C178.646 30.1927 179.599 29.849 180.578 29.3906V33.0781C179.714 33.5052 178.807 33.8177 177.859 34.0156C176.922 34.2135 175.781 34.3125 174.438 34.3125C172.688 34.3125 171.135 33.9896 169.781 33.3438C168.438 32.6979 167.38 31.7135 166.609 30.3906C165.849 29.0677 165.469 27.401 165.469 25.3906C165.469 23.349 165.812 21.651 166.5 20.2969C167.198 18.9323 168.167 17.9115 169.406 17.2344C170.646 16.5469 172.089 16.2031 173.734 16.2031ZM173.766 19.5938C172.839 19.5938 172.068 19.8906 171.453 20.4844C170.849 21.0781 170.5 22.0104 170.406 23.2812H177.094C177.083 22.5729 176.953 21.9427 176.703 21.3906C176.464 20.8385 176.099 20.401 175.609 20.0781C175.13 19.7552 174.516 19.5938 173.766 19.5938Z" fill="black"/>
<g clip-path="url(#clip0_315_6)">
<path d="M29.8398 21.1745C30.0314 21.5078 30.1322 21.8855 30.1322 22.27C30.1322 22.6545 30.0314 23.0322 29.8398 23.3655L25.531 30.7989C25.3385 31.1308 25.0622 31.4063 24.7298 31.5979C24.3975 31.7894 24.0206 31.8904 23.637 31.8906H15.0656C14.6846 31.8877 14.3109 31.7855 13.9815 31.594C13.652 31.4026 13.3782 31.1285 13.187 30.7989L8.87818 23.3655C8.68663 23.0322 8.58582 22.6545 8.58582 22.27C8.58582 21.8855 8.68663 21.5078 8.87818 21.1745L11.2583 17.0701L16.5546 26.1275C16.6418 26.2825 16.7691 26.4113 16.9232 26.5002C17.0772 26.5891 17.2524 26.6349 17.4302 26.6328H21.2877C21.4656 26.6349 21.6408 26.5891 21.7948 26.5002C21.9489 26.4113 22.0762 26.2825 22.1634 26.1275L24.0921 22.7599C24.1795 22.6086 24.2255 22.437 24.2255 22.2623C24.2255 22.0876 24.1795 21.916 24.0921 21.7647L15.3973 6.72045C15.0956 6.19867 14.662 5.7654 14.14 5.4641C13.618 5.16281 13.0259 5.00409 12.4232 5.00386L11.644 5.00386C10.9544 5.00359 10.2769 5.18492 9.6797 5.52959C9.08244 5.87427 8.58648 6.37014 8.24169 6.96733L0.526707 20.3104C0.181669 20.9072 -3.0135e-08 21.5845 0 22.2739C3.0134e-08 22.9633 0.181669 23.6405 0.526707 24.2373L8.2417 37.5804C8.58697 38.1769 9.08314 38.672 9.68036 39.0159C10.2776 39.3599 10.9548 39.5407 11.644 39.54H27.074C27.7636 39.5403 28.441 39.3589 29.0383 39.0143C29.6355 38.6696 30.1315 38.1737 30.4763 37.5765L38.1913 24.2335C38.5363 23.6366 38.718 22.9594 38.718 22.27C38.718 21.5806 38.5363 20.9034 38.1913 20.3065L30.4763 6.96347C30.1315 6.36628 29.6355 5.87041 29.0383 5.52574C28.441 5.18106 27.7636 4.99974 27.074 5L20.5162 5L29.8398 21.1745Z" fill="#475BE8"/>
</g>
<defs>
<clipPath id="clip0_315_6">
<rect width="39" height="35" fill="white" transform="translate(0 5)"/>
</clipPath>
</defs>
</svg>
